{
    "asset" : {
        "generator" : "Khronos glTF Blender I/O v1.0.5",
        "version" : "2.0"
    },
    "scene" : 0,
    "scenes" : [
        {
            "name" : "rose",
            "nodes" : [
                0,
                1,
                2
            ]
        },
        {
            "name" : "Scene",
            "nodes" : [
                3
            ]
        }
    ],
    "nodes" : [
        {
            "name" : "Light",
            "rotation" : [
                0.16907575726509094,
                0.7558803558349609,
                -0.27217137813568115,
                0.570947527885437
            ],
            "translation" : [
                4.076245307922363,
                5.903861999511719,
                -1.0054539442062378
            ]
        },
        {
            "name" : "Camera",
            "rotation" : [
                0.483536034822464,
                0.33687159419059753,
                -0.20870360732078552,
                0.7804827094078064
            ],
            "translation" : [
                7.358891487121582,
                4.958309173583984,
                6.925790786743164
            ]
        },
        {
            "mesh" : 0,
            "name" : "Rosediss",
            "translation" : [
                0,
                0,
                -0.5939022898674011
            ]
        },
        {
            "mesh" : 1,
            "name" : "Text",
            "scale" : [
                0.36760401725769043,
                0.36760401725769043,
                0.36760401725769043
            ]
        }
    ],
    "materials" : [
        {
            "doubleSided" : true,
            "name" : "Material #502",
            "pbrMetallicRoughness" : {
                "baseColorTexture" : {
                    "index" : 0,
                    "texCoord" : 0
                },
                "metallicFactor" : 0,
                "roughnessFactor" : 0.9666666388511658
            }
        }
    ],
    "meshes" : [
        {
            "name" : "Rosediss",
            "primitives" : [
                {
                    "attributes" : {
                        "POSITION" : 0,
                        "NORMAL" : 1,
                        "TEXCOORD_0" : 2
                    },
                    "indices" : 3,
                    "material" : 0
                }
            ]
        },
        {
            "name" : "Text",
            "primitives" : [
                {
                    "attributes" : {
                        "POSITION" : 4,
                        "NORMAL" : 5
                    },
                    "indices" : 6
                }
            ]
        }
    ],
    "textures" : [
        {
            "source" : 0
        }
    ],
    "images" : [
        {
            "bufferView" : 4,
            "mimeType" : "image/png",
            "name" : "rosediss"
        }
    ],
    "accessors" : [
        {
            "bufferView" : 0,
            "componentType" : 5126,
            "count" : 1966,
            "max" : [
                0.6041967868804932,
                0.3158954679965973,
                1.4279736280441284
            ],
            "min" : [
                -0.3334932327270508,
                -0.31194451451301575,
                -0.31577634811401367
            ],
            "type" : "VEC3"
        },
        {
            "bufferView" : 1,
            "componentType" : 5126,
            "count" : 1966,
            "type" : "VEC3"
        },
        {
            "bufferView" : 2,
            "componentType" : 5126,
            "count" : 1966,
            "type" : "VEC2"
        },
        {
            "bufferView" : 3,
            "componentType" : 5123,
            "count" : 3108,
            "type" : "SCALAR"
        },
        {
            "bufferView" : 5,
            "componentType" : 5126,
            "count" : 55832,
            "max" : [
                6.908000946044922,
                0.20423732697963715,
                3.3475000858306885
            ],
            "min" : [
                -6.9079999923706055,
                0,
                -3.3475000858306885
            ],
            "type" : "VEC3"
        },
        {
            "bufferView" : 6,
            "componentType" : 5126,
            "count" : 55832,
            "type" : "VEC3"
        },
        {
            "bufferView" : 7,
            "componentType" : 5123,
            "count" : 99120,
            "type" : "SCALAR"
        }
    ],
    "bufferViews" : [
        {
            "buffer" : 0,
            "byteLength" : 23592,
            "byteOffset" : 0
        },
        {
            "buffer" : 0,
            "byteLength" : 23592,
            "byteOffset" : 23592
        },
        {
            "buffer" : 0,
            "byteLength" : 15728,
            "byteOffset" : 47184
        },
        {
            "buffer" : 0,
            "byteLength" : 6216,
            "byteOffset" : 62912
        },
        {
            "buffer" : 0,
            "byteLength" : 83991,
            "byteOffset" : 69128
        },
        {
            "buffer" : 0,
            "byteLength" : 669984,
            "byteOffset" : 153120
        },
        {
            "buffer" : 0,
            "byteLength" : 669984,
            "byteOffset" : 823104
        },
        {
            "buffer" : 0,
            "byteLength" : 198240,
            "byteOffset" : 1493088
        }
    ],
    "buffers" : [
        {
            "byteLength" : 1691328,
            "uri" : "data:application/octet-stream;base64,"
        }
    ]
}
