{
    "asset" : {
        "generator" : "Khronos glTF Blender I/O v1.0.5",
        "version" : "2.0"
    },
    "scene" : 0,
    "scenes" : [
        {
            "name" : "Scene",
            "nodes" : [
                0,
                1,
                2,
                3
            ]
        }
    ],
    "nodes" : [
        {
            "name" : "Light",
            "rotation" : [
                0.16907575726509094,
                0.7558803558349609,
                -0.27217137813568115,
                0.570947527885437
            ],
            "translation" : [
                4.076245307922363,
                5.903861999511719,
                -1.0054539442062378
            ]
        },
        {
            "name" : "Camera",
            "rotation" : [
                0.483536034822464,
                0.33687159419059753,
                -0.20870360732078552,
                0.7804827094078064
            ],
            "translation" : [
                7.358891487121582,
                4.958309173583984,
                6.925790786743164
            ]
        },
        {
            "mesh" : 0,
            "name" : "Rosediss",
            "rotation" : [
                0,
                0,
                0,
                -1
            ],
            "translation" : [
                -0.3333622217178345,
                0,
                1.1232340335845947
            ]
        },
        {
            "mesh" : 1,
            "name" : "Text",
            "scale" : [
                0.22985750436782837,
                0.22985750436782837,
                0.22985750436782837
            ],
            "translation" : [
                0.016617972403764725,
                0,
                -0.4525238871574402
            ]
        }
    ],
    "materials" : [
        {
            "doubleSided" : true,
            "name" : "Material #502",
            "pbrMetallicRoughness" : {
                "baseColorTexture" : {
                    "index" : 0,
                    "texCoord" : 0
                },
                "metallicFactor" : 0,
                "roughnessFactor" : 0.9666666388511658
            }
        },
        {
            "doubleSided" : true,
            "name" : "Material.001",
            "pbrMetallicRoughness" : {
                "baseColorFactor" : [
                    0.8000000715255737,
                    0.5722944140434265,
                    0,
                    1
                ],
                "metallicFactor" : 0,
                "roughnessFactor" : 0.5
            }
        }
    ],
    "meshes" : [
        {
            "name" : "Rosediss",
            "primitives" : [
                {
                    "attributes" : {
                        "POSITION" : 0,
                        "NORMAL" : 1,
                        "TEXCOORD_0" : 2
                    },
                    "indices" : 3,
                    "material" : 0
                }
            ]
        },
        {
            "name" : "Text",
            "primitives" : [
                {
                    "attributes" : {
                        "POSITION" : 4,
                        "NORMAL" : 5
                    },
                    "indices" : 6,
                    "material" : 1
                }
            ]
        }
    ],
    "textures" : [
        {
            "source" : 0
        }
    ],
    "images" : [
        {
            "bufferView" : 4,
            "mimeType" : "image/png",
            "name" : "rosediss"
        }
    ],
    "accessors" : [
        {
            "bufferView" : 0,
            "componentType" : 5126,
            "count" : 1807,
            "max" : [
                0.468845009803772,
                0.3139199912548065,
                -5.96045985901128e-08
            ],
            "min" : [
                -0.468845009803772,
                -0.3139199912548065,
                -1.743749976158142
            ],
            "type" : "VEC3"
        },
        {
            "bufferView" : 1,
            "componentType" : 5126,
            "count" : 1807,
            "type" : "VEC3"
        },
        {
            "bufferView" : 2,
            "componentType" : 5126,
            "count" : 1807,
            "type" : "VEC2"
        },
        {
            "bufferView" : 3,
            "componentType" : 5123,
            "count" : 2949,
            "type" : "SCALAR"
        },
        {
            "bufferView" : 5,
            "componentType" : 5126,
            "count" : 35827,
            "max" : [
                8.452000617980957,
                0.17801393568515778,
                7.008999824523926
            ],
            "min" : [
                0,
                0,
                -0.7160000205039978
            ],
            "type" : "VEC3"
        },
        {
            "bufferView" : 6,
            "componentType" : 5126,
            "count" : 35827,
            "type" : "VEC3"
        },
        {
            "bufferView" : 7,
            "componentType" : 5123,
            "count" : 58731,
            "type" : "SCALAR"
        }
    ],
    "bufferViews" : [
        {
            "buffer" : 0,
            "byteLength" : 21684,
            "byteOffset" : 0
        },
        {
            "buffer" : 0,
            "byteLength" : 21684,
            "byteOffset" : 21684
        },
        {
            "buffer" : 0,
            "byteLength" : 14456,
            "byteOffset" : 43368
        },
        {
            "buffer" : 0,
            "byteLength" : 5898,
            "byteOffset" : 57824
        },
        {
            "buffer" : 0,
            "byteLength" : 83991,
            "byteOffset" : 63724
        },
        {
            "buffer" : 0,
            "byteLength" : 429924,
            "byteOffset" : 147716
        },
        {
            "buffer" : 0,
            "byteLength" : 429924,
            "byteOffset" : 577640
        },
        {
            "buffer" : 0,
            "byteLength" : 117462,
            "byteOffset" : 1007564
        }
    ],
    "buffers" : [
        {
            "byteLength" : 1125028,
            "uri" : "data:application/octet-stream;base64,"
        }
    ]
}
